<svg width="24" height="25" viewBox="0 0 24 25" fill="none" xmlns="http://www.w3.org/2000/svg">
<path d="M20.5 17.5V18H21H21.5V22H14.5V18H15H15.5V17.5V16.5C15.5 15.837 15.7634 15.2011 16.2322 14.7322C16.7011 14.2634 17.337 14 18 14C18.663 14 19.2989 14.2634 19.7678 14.7322C20.2366 15.2011 20.5 15.837 20.5 16.5V17.5ZM19 18H19.5V17.5V16.5C19.5 16.1022 19.342 15.7206 19.0607 15.4393C18.7794 15.158 18.3978 15 18 15C17.6022 15 17.2206 15.158 16.9393 15.4393C16.658 15.7206 16.5 16.1022 16.5 16.5V17.5V18H17H19ZM4.51667 22C4.6373 20.1935 5.40849 18.4849 6.6967 17.1967C7.9849 15.9085 9.69348 15.1373 11.5 15.0167V16.0192C9.95902 16.1381 8.50439 16.8032 7.40381 17.9038C6.30322 19.0044 5.63807 20.459 5.51924 22H4.51667ZM12 13C8.96114 13 6.5 10.5389 6.5 7.5C6.5 4.46114 8.96114 2 12 2C15.0389 2 17.5 4.46114 17.5 7.5C17.5 10.5389 15.0389 13 12 13ZM12 12C14.4861 12 16.5 9.98614 16.5 7.5C16.5 5.01386 14.4861 3 12 3C9.51386 3 7.5 5.01386 7.5 7.5C7.5 9.98614 9.51386 12 12 12Z" fill="black" stroke="white"/>
</svg>
