<svg width="48" height="48" viewBox="0 0 48 48" fill="none" xmlns="http://www.w3.org/2000/svg">
<path fill-rule="evenodd" clip-rule="evenodd" d="M30.0001 12.0002C30.0007 13.2415 29.6164 14.4525 28.8999 15.4662C28.1835 16.4799 27.1704 17.2465 26.0001 17.6602V22.0002H32.0001C33.5914 22.0002 35.1175 22.6324 36.2427 23.7576C37.3679 24.8828 38.0001 26.4089 38.0001 28.0002V30.3402C39.335 30.812 40.4603 31.7406 41.1768 32.9618C41.8933 34.1831 42.155 35.6183 41.9157 37.0138C41.6763 38.4093 40.9513 39.6753 39.8688 40.588C38.7863 41.5006 37.416 42.0012 36.0001 42.0012C34.5842 42.0012 33.2138 41.5006 32.1313 40.588C31.0488 39.6753 30.3238 38.4093 30.0844 37.0138C29.8451 35.6183 30.1068 34.1831 30.8233 32.9618C31.5399 31.7406 32.6651 30.812 34.0001 30.3402V28.0002C34.0001 27.4698 33.7894 26.9611 33.4143 26.586C33.0392 26.2109 32.5305 26.0002 32.0001 26.0002H16.0001C15.4696 26.0002 14.9609 26.2109 14.5858 26.586C14.2108 26.9611 14.0001 27.4698 14.0001 28.0002V30.3402C15.335 30.812 16.4602 31.7406 17.1768 32.9618C17.8933 34.1831 18.155 35.6183 17.9157 37.0138C17.6763 38.4093 16.9513 39.6753 15.8688 40.588C14.7863 41.5006 13.416 42.0012 12.0001 42.0012C10.5842 42.0012 9.21383 41.5006 8.13132 40.588C7.0488 39.6753 6.32379 38.4093 6.08444 37.0138C5.84509 35.6183 6.10681 34.1831 6.82334 32.9618C7.53987 31.7406 8.66507 30.812 10.0001 30.3402V28.0002C10.0001 26.4089 10.6322 24.8828 11.7574 23.7576C12.8826 22.6324 14.4088 22.0002 16.0001 22.0002H22.0001V17.6602C20.9624 17.2939 20.0453 16.6493 19.3493 15.797C18.6532 14.9446 18.2049 13.9173 18.0533 12.8273C17.9017 11.7373 18.0527 10.6267 18.4898 9.61671C18.9268 8.60677 19.6332 7.73642 20.5315 7.10083C21.4299 6.46524 22.4857 6.08887 23.5835 6.01287C24.6814 5.93687 25.779 6.16415 26.7563 6.66988C27.7337 7.17561 28.5532 7.94032 29.1253 8.8804C29.6974 9.82049 30 10.8998 30.0001 12.0002ZM24.0001 10.0002C23.4696 10.0002 22.9609 10.2109 22.5858 10.586C22.2108 10.9611 22.0001 11.4698 22.0001 12.0002C22.0001 12.5307 22.2108 13.0394 22.5858 13.4144C22.9609 13.7895 23.4696 14.0002 24.0001 14.0002C24.5305 14.0002 25.0392 13.7895 25.4143 13.4144C25.7893 13.0394 26.0001 12.5307 26.0001 12.0002C26.0001 11.4698 25.7893 10.9611 25.4143 10.586C25.0392 10.2109 24.5305 10.0002 24.0001 10.0002ZM12.0001 34.0002C11.4696 34.0002 10.9609 34.2109 10.5858 34.586C10.2108 34.9611 10.0001 35.4698 10.0001 36.0002C10.0001 36.5307 10.2108 37.0394 10.5858 37.4144C10.9609 37.7895 11.4696 38.0002 12.0001 38.0002C12.5305 38.0002 13.0392 37.7895 13.4143 37.4144C13.7893 37.0394 14.0001 36.5307 14.0001 36.0002C14.0001 35.4698 13.7893 34.9611 13.4143 34.586C13.0392 34.2109 12.5305 34.0002 12.0001 34.0002ZM36.0001 34.0002C35.4696 34.0002 34.9609 34.2109 34.5858 34.586C34.2108 34.9611 34.0001 35.4698 34.0001 36.0002C34.0001 36.5307 34.2108 37.0394 34.5858 37.4144C34.9609 37.7895 35.4696 38.0002 36.0001 38.0002C36.5305 38.0002 37.0392 37.7895 37.4143 37.4144C37.7894 37.0394 38.0001 36.5307 38.0001 36.0002C38.0001 35.4698 37.7894 34.9611 37.4143 34.586C37.0392 34.2109 36.5305 34.0002 36.0001 34.0002Z" fill="black"/>
</svg>
