<svg width="36" height="36" viewBox="0 0 36 36" fill="none" xmlns="http://www.w3.org/2000/svg">
<path fill-rule="evenodd" clip-rule="evenodd" d="M24.0001 6.00022C24.0007 7.24152 23.6164 8.45248 22.8999 9.46618C22.1835 10.4799 21.1704 11.2465 20.0001 11.6602V16.0002H26.0001C27.5914 16.0002 29.1175 16.6324 30.2427 17.7576C31.3679 18.8828 32.0001 20.4089 32.0001 22.0002V24.3402C33.335 24.812 34.4603 25.7406 35.1768 26.9618C35.8933 28.1831 36.155 29.6183 35.9157 31.0138C35.6763 32.4093 34.9513 33.6753 33.8688 34.588C32.7863 35.5006 31.416 36.0012 30.0001 36.0012C28.5842 36.0012 27.2138 35.5006 26.1313 34.588C25.0488 33.6753 24.3238 32.4093 24.0844 31.0138C23.8451 29.6183 24.1068 28.1831 24.8233 26.9618C25.5399 25.7406 26.6651 24.812 28.0001 24.3402V22.0002C28.0001 21.4698 27.7894 20.9611 27.4143 20.586C27.0392 20.2109 26.5305 20.0002 26.0001 20.0002H10.0001C9.46963 20.0002 8.96092 20.2109 8.58585 20.586C8.21077 20.9611 8.00006 21.4698 8.00006 22.0002V24.3402C9.33505 24.812 10.4602 25.7406 11.1768 26.9618C11.8933 28.1831 12.155 29.6183 11.9157 31.0138C11.6763 32.4093 10.9513 33.6753 9.8688 34.588C8.78629 35.5006 7.41597 36.0012 6.00006 36.0012C4.58415 36.0012 3.21383 35.5006 2.13132 34.588C1.0488 33.6753 0.323787 32.4093 0.084437 31.0138C-0.154913 29.6183 0.106808 28.1831 0.82334 26.9618C1.53987 25.7406 2.66507 24.812 4.00006 24.3402V22.0002C4.00006 20.4089 4.6322 18.8828 5.75742 17.7576C6.88264 16.6324 8.40876 16.0002 10.0001 16.0002H16.0001V11.6602C14.9624 11.2939 14.0453 10.6493 13.3493 9.79696C12.6532 8.9446 12.2049 7.91728 12.0533 6.82731C11.9017 5.73733 12.0527 4.62666 12.4898 3.61671C12.9268 2.60677 13.6332 1.73642 14.5315 1.10083C15.4299 0.465244 16.4857 0.0888735 17.5835 0.0128693C18.6814 -0.0631349 19.779 0.164153 20.7563 0.669884C21.7337 1.17561 22.5532 1.94032 23.1253 2.8804C23.6974 3.82049 24 4.89975 24.0001 6.00022ZM18.0001 4.00022C17.4696 4.00022 16.9609 4.21093 16.5858 4.58601C16.2108 4.96108 16.0001 5.46979 16.0001 6.00022C16.0001 6.53065 16.2108 7.03936 16.5858 7.41443C16.9609 7.78951 17.4696 8.00022 18.0001 8.00022C18.5305 8.00022 19.0392 7.78951 19.4143 7.41443C19.7893 7.03936 20.0001 6.53065 20.0001 6.00022C20.0001 5.46979 19.7893 4.96108 19.4143 4.58601C19.0392 4.21093 18.5305 4.00022 18.0001 4.00022ZM6.00006 28.0002C5.46963 28.0002 4.96092 28.2109 4.58585 28.586C4.21077 28.9611 4.00006 29.4698 4.00006 30.0002C4.00006 30.5307 4.21077 31.0394 4.58585 31.4144C4.96092 31.7895 5.46963 32.0002 6.00006 32.0002C6.53049 32.0002 7.0392 31.7895 7.41427 31.4144C7.78935 31.0394 8.00006 30.5307 8.00006 30.0002C8.00006 29.4698 7.78935 28.9611 7.41427 28.586C7.0392 28.2109 6.53049 28.0002 6.00006 28.0002ZM30.0001 28.0002C29.4696 28.0002 28.9609 28.2109 28.5858 28.586C28.2108 28.9611 28.0001 29.4698 28.0001 30.0002C28.0001 30.5307 28.2108 31.0394 28.5858 31.4144C28.9609 31.7895 29.4696 32.0002 30.0001 32.0002C30.5305 32.0002 31.0392 31.7895 31.4143 31.4144C31.7894 31.0394 32.0001 30.5307 32.0001 30.0002C32.0001 29.4698 31.7894 28.9611 31.4143 28.586C31.0392 28.2109 30.5305 28.0002 30.0001 28.0002Z" fill="white"/>
</svg>
