<svg width="143" height="46" viewBox="0 0 143 46" fill="none" xmlns="http://www.w3.org/2000/svg">
<path d="M56.7049 16.6022V8.83923H67.6732V16.6022H56.7049ZM56.7049 27.9318V20.7983H67.3228V27.9318H56.7049ZM51.3784 8.83923H58.7374V38.2125H51.3784V8.83923Z" fill="white"/>
<path d="M76.7643 18.9101V38.2125H70.1062V18.9101H76.7643ZM81.2848 27.2185C81.0745 26.8828 80.8059 26.6031 80.4788 26.3793C80.1517 26.1555 79.7546 26.0436 79.2874 26.0436C78.8902 26.0436 78.4931 26.1834 78.0959 26.4632C77.6988 26.7429 77.3717 27.1765 77.1147 27.764C76.8811 28.3515 76.7643 29.1068 76.7643 30.0299L75.5028 26.4632C75.5028 24.9246 75.7714 23.5538 76.3087 22.3509C76.8461 21.148 77.5469 20.1969 78.4113 19.4975C79.299 18.7702 80.2335 18.4065 81.2147 18.4065C81.7987 18.4065 82.3594 18.5884 82.8967 18.952C83.4574 19.2877 83.8429 19.6933 84.0531 20.1689L81.2848 27.2185Z" fill="white"/>
<path d="M85.0738 12.1123C85.0738 10.8814 85.4359 9.88828 86.1601 9.13297C86.9077 8.37766 87.8071 8 88.8584 8C89.9096 8 90.7974 8.37766 91.5216 9.13297C92.2692 9.88828 92.643 10.8814 92.643 12.1123C92.643 13.3431 92.2692 14.3362 91.5216 15.0915C90.7974 15.8468 89.9096 16.2245 88.8584 16.2245C87.8071 16.2245 86.9077 15.8468 86.1601 15.0915C85.4359 14.3362 85.0738 13.3431 85.0738 12.1123ZM85.5644 18.9101H92.1173V38.2125H85.5644V18.9101Z" fill="white"/>
<path d="M108.557 28.1416V21.4278H121.593C121.78 23.9455 121.616 26.2953 121.102 28.4773C120.612 30.6594 119.806 32.5756 118.684 34.2261C117.563 35.8766 116.149 37.1634 114.444 38.0866C112.739 39.0097 110.776 39.4713 108.557 39.4713C106.501 39.4713 104.62 39.0937 102.915 38.3384C101.21 37.583 99.7262 36.506 98.4647 35.1073C97.2265 33.7086 96.257 32.0301 95.5561 30.0719C94.8787 28.1137 94.5399 25.9317 94.5399 23.5259C94.5399 21.12 94.902 18.966 95.6262 17.0637C96.3504 15.1335 97.355 13.497 98.6399 12.1542C99.9481 10.8114 101.467 9.79037 103.195 9.09101C104.948 8.36367 106.852 8 108.907 8C110.776 8 112.423 8.33569 113.848 9.00708C115.297 9.67847 116.558 10.5737 117.633 11.6926C118.731 12.7836 119.689 14.0145 120.506 15.3853L113.323 19.2458C112.902 18.3226 112.353 17.5113 111.676 16.812C110.998 16.1126 110.075 15.7629 108.907 15.7629C107.763 15.7629 106.711 16.0567 105.754 16.6441C104.796 17.2036 104.025 18.0568 103.441 19.2038C102.88 20.3507 102.6 21.7914 102.6 23.5259C102.6 25.2323 102.857 26.701 103.371 27.9318C103.908 29.1627 104.644 30.0999 105.578 30.7433C106.536 31.3867 107.646 31.7084 108.907 31.7084C109.608 31.7084 110.239 31.6245 110.8 31.4566C111.36 31.2888 111.839 31.051 112.236 30.7433C112.657 30.4356 113.019 30.0579 113.323 29.6103C113.626 29.1627 113.883 28.6732 114.094 28.1416H108.557Z" fill="white"/>
<path d="M123.516 28.5613C123.516 26.4632 123.937 24.6588 124.778 23.1482C125.619 21.6376 126.775 20.4766 128.247 19.6654C129.719 18.8541 131.389 18.4485 133.258 18.4485C135.127 18.4485 136.797 18.8541 138.269 19.6654C139.741 20.4766 140.897 21.6376 141.738 23.1482C142.579 24.6588 143 26.4632 143 28.5613C143 30.6314 142.579 32.4217 141.738 33.9324C140.897 35.443 139.741 36.6039 138.269 37.4152C136.797 38.2265 135.127 38.6321 133.258 38.6321C131.389 38.6321 129.719 38.2265 128.247 37.4152C126.775 36.6039 125.619 35.443 124.778 33.9324C123.937 32.4217 123.516 30.6314 123.516 28.5613ZM130.56 28.5613C130.56 29.3446 130.688 30.002 130.945 30.5335C131.202 31.065 131.529 31.4706 131.926 31.7504C132.347 32.0021 132.791 32.128 133.258 32.128C133.725 32.128 134.158 32.0021 134.555 31.7504C134.975 31.4706 135.314 31.065 135.571 30.5335C135.828 30.002 135.956 29.3446 135.956 28.5613C135.956 27.778 135.828 27.1206 135.571 26.5891C135.314 26.0575 134.975 25.6519 134.555 25.3722C134.158 25.0924 133.725 24.9526 133.258 24.9526C132.791 24.9526 132.347 25.0924 131.926 25.3722C131.529 25.6519 131.202 26.0575 130.945 26.5891C130.688 27.1206 130.56 27.778 130.56 28.5613Z" fill="white"/>
<path fill-rule="evenodd" clip-rule="evenodd" d="M34.5 23.6389H11.3296C11.3296 30.8543 11.3296 34.463 13.0268 36.7035C13.4711 37.2871 14.0028 37.7414 14.5879 38.0372V40.8594C14.5879 41.6516 15.0745 42.2945 15.674 42.2945H17.1222C17.4102 42.2945 17.6865 42.1433 17.8902 41.8742C18.0939 41.605 18.2083 41.24 18.2083 40.8594V38.8561C19.5044 38.946 21.0496 38.946 22.9148 38.946C24.78 38.946 26.3252 38.946 27.6213 38.8561V40.8594C27.6213 41.6516 28.1078 42.2945 28.7074 42.2945H30.1555C30.4436 42.2945 30.7198 42.1433 30.9235 41.8742C31.1272 41.605 31.2416 41.24 31.2416 40.8594V38.0372C31.8267 37.7414 32.3585 37.2871 32.8027 36.7035C34.5 34.463 34.5 30.8543 34.5 23.6389Z" fill="white"/>
<path fill-rule="evenodd" clip-rule="evenodd" d="M34.5 23.6389H11.3296C11.3296 30.8543 11.3296 34.463 13.0245 36.7035C13.4681 37.2871 13.9991 37.7414 14.5834 38.0372V40.8594C14.5834 41.6516 15.0693 42.2945 15.668 42.2945H17.1141C17.4018 42.2945 17.6854 42.159 17.8888 41.8898C18.0923 41.6207 18.2083 41.2482 18.2083 40.8676V38.8658C19.5026 38.9557 23.543 39.0458 25.4696 32.2067C26.7872 27.5295 33.2057 23.7288 34.5 23.6389Z" fill="#0667FD"/>
<path d="M11.3296 19.0568C11.3296 11.8206 11.3296 8.20157 13.0268 5.95453C14.724 3.70749 17.4538 3.70557 22.9148 3.70557C28.3757 3.70557 31.1069 3.70557 32.8027 5.95453C34.4985 8.20349 34.5 11.8206 34.5 19.0568V21.9352H11.3296V19.0568Z" fill="white"/>
<path d="M11.3296 21.9352C20.5766 20.416 17.7945 19.0901 21.043 15.0145C22.7155 12.9162 20.4962 8.53739 23.809 3.70557C29.267 3.70557 31.3451 3.91035 33.04 6.13334C34.7348 8.35634 34.5 11.9382 34.5 19.0908V21.9352H11.3296Z" fill="#0667FD"/>
<path d="M26.1093 27.0888C26.1093 26.4537 26.4992 26.1518 26.9801 26.1518L31.8828 25.9388C32.3638 25.9388 32.7537 26.4537 32.7537 27.0888C32.7537 27.724 32.3638 28.2388 31.8828 28.2388L26.9801 28.0472C26.4992 28.0472 26.1093 27.724 26.1093 27.0888Z" fill="#02255B"/>
<path d="M26.6576 27.0675C26.6576 26.8206 26.7124 26.8333 26.8995 26.8333L27.8671 26.6203C28.0542 26.6203 28.2058 26.8206 28.2058 27.0675C28.2058 27.3145 28.0542 27.5148 27.8671 27.5148L26.8995 27.2805C26.7124 27.2805 26.6576 27.3145 26.6576 27.0675Z" fill="white"/>
</svg>
