<svg width="474" height="178" viewBox="0 0 474 178" fill="none" xmlns="http://www.w3.org/2000/svg">
<path fill-rule="evenodd" clip-rule="evenodd" d="M106.494 91.6163H0C0 124.779 -5.65012e-07 141.365 7.80071 151.663C9.84251 154.345 12.2866 156.433 14.9758 157.793V170.764C14.9758 174.405 17.2121 177.36 19.9677 177.36H26.6236C27.9475 177.36 29.2172 176.665 30.1534 175.428C31.0896 174.191 31.6155 172.514 31.6155 170.764V161.557C37.5725 161.97 44.6744 161.97 53.2472 161.97C61.8199 161.97 68.9218 161.97 74.8788 161.557V170.764C74.8788 174.405 77.1152 177.36 79.8707 177.36H86.5266C87.8506 177.36 89.1203 176.665 90.0564 175.428C90.9926 174.191 91.5185 172.514 91.5185 170.764V157.793C94.2077 156.433 96.6518 154.345 98.6936 151.663C106.494 141.365 106.494 124.779 106.494 91.6163Z" fill="white"/>
<path fill-rule="evenodd" clip-rule="evenodd" d="M106.494 91.6163H0C0 124.779 -7.46771e-07 141.365 7.78989 151.663C9.82886 154.345 12.2695 156.433 14.955 157.793V170.764C14.955 174.405 17.1883 177.36 19.94 177.36H26.5867C27.9088 177.36 29.2124 176.737 30.1473 175.5C31.0822 174.263 31.6155 172.551 31.6155 170.802V161.601C37.5643 162.014 56.1345 162.429 64.9896 130.995C71.0454 109.498 100.546 92.0297 106.494 91.6163Z" fill="#0667FD"/>
<path d="M67.4336 106.898C67.4336 103.979 69.2256 102.591 71.4363 102.591L93.9697 101.612C96.1804 101.612 97.9724 103.979 97.9724 106.898C97.9724 109.817 96.1804 112.184 93.9697 112.184L71.4363 111.303C69.2256 111.303 67.4336 109.817 67.4336 106.898Z" fill="#02255B"/>
<path d="M69.9538 106.8C69.9538 105.665 70.206 105.723 71.0656 105.723L75.513 104.745C76.3727 104.745 77.0696 105.665 77.0696 106.8C77.0696 107.935 76.3727 108.856 75.513 108.856L71.0656 107.779C70.206 107.779 69.9538 107.935 69.9538 106.8Z" fill="white"/>
<path d="M0 70.5566C0 37.298 -5.64227e-07 20.6643 7.80071 10.3365C15.6014 0.00881922 28.1478 0 53.2472 0C78.3465 0 90.8995 -7.47645e-07 98.6936 10.3365C106.488 20.6731 106.494 37.298 106.494 70.5566V83.786H0V70.5566Z" fill="white"/>
<path d="M0 83.786C42.5006 76.8036 29.7134 70.7094 44.6441 51.9775C52.3311 42.3333 42.131 22.2078 57.3573 0C82.443 0 91.9941 0.941228 99.7839 11.1584C107.574 21.3756 106.494 37.8382 106.494 70.7128V83.786H0Z" fill="#0667FD"/>
<path d="M191.228 64.6636V39.2129H227.169V64.6636H191.228ZM191.228 101.808V78.4207H226.021V101.808H191.228ZM173.774 39.2129H197.888V135.513H173.774V39.2129Z" fill="white"/>
<path d="M256.959 72.23V135.513H235.141V72.23H256.959ZM271.771 99.4691C271.083 98.3685 270.202 97.4514 269.13 96.7177C268.059 95.984 266.757 95.6171 265.226 95.6171C263.925 95.6171 262.624 96.0757 261.322 96.9928C260.021 97.91 258.949 99.3315 258.107 101.258C257.341 103.184 256.959 105.66 256.959 108.686L252.825 96.9928C252.825 91.9485 253.705 87.4545 255.466 83.5108C257.227 79.5671 259.523 76.4488 262.356 74.156C265.265 71.7714 268.327 70.5791 271.542 70.5791C273.456 70.5791 275.293 71.1753 277.054 72.3676C278.891 73.4681 280.154 74.798 280.843 76.3571L271.771 99.4691Z" fill="white"/>
<path d="M284.187 49.9435C284.187 45.908 285.374 42.6522 287.747 40.1759C290.197 37.6996 293.144 36.4615 296.589 36.4615C300.033 36.4615 302.942 37.6996 305.316 40.1759C307.765 42.6522 308.99 45.908 308.99 49.9435C308.99 53.9789 307.765 57.2347 305.316 59.711C302.942 62.1873 300.033 63.4254 296.589 63.4254C293.144 63.4254 290.197 62.1873 287.747 59.711C285.374 57.2347 284.187 53.9789 284.187 49.9435ZM285.795 72.23H307.268V135.513H285.795V72.23Z" fill="white"/>
<path d="M361.137 102.496V80.4843H403.853C404.465 88.7385 403.929 96.4425 402.245 103.596C400.638 110.75 397.997 117.032 394.322 122.443C390.648 127.855 386.016 132.073 380.428 135.1C374.84 138.127 368.409 139.64 361.137 139.64C354.4 139.64 348.238 138.402 342.65 135.925C337.061 133.449 332.2 129.918 328.067 125.332C324.009 120.747 320.832 115.244 318.536 108.824C316.316 102.404 315.206 95.2502 315.206 87.3628C315.206 79.4754 316.393 72.4134 318.766 66.1769C321.139 59.8486 324.43 54.4833 328.641 50.081C332.928 45.6788 337.904 42.3312 343.568 40.0383C349.31 37.6538 355.549 36.4615 362.285 36.4615C368.409 36.4615 373.806 37.5621 378.476 39.7632C383.222 41.9643 387.356 44.8992 390.877 48.5678C394.475 52.1446 397.614 56.18 400.293 60.674L376.754 73.3306C375.376 70.304 373.577 67.6443 371.357 65.3514C369.137 63.0586 366.113 61.9122 362.285 61.9122C358.534 61.9122 355.089 62.8752 351.951 64.8012C348.812 66.6354 346.286 69.4327 344.372 73.193C342.535 76.9533 341.616 81.6766 341.616 87.3628C341.616 92.9574 342.458 97.7724 344.143 101.808C345.903 105.843 348.315 108.916 351.377 111.025C354.515 113.135 358.151 114.189 362.285 114.189C364.582 114.189 366.649 113.914 368.486 113.364C370.323 112.814 371.893 112.034 373.194 111.025C374.572 110.016 375.758 108.778 376.754 107.311C377.749 105.843 378.591 104.238 379.28 102.496H361.137Z" fill="white"/>
<path d="M410.156 103.871C410.156 96.9928 411.534 91.0773 414.29 86.1247C417.046 81.1721 420.835 77.366 425.658 74.7063C430.48 72.0466 435.954 70.7167 442.078 70.7167C448.202 70.7167 453.676 72.0466 458.498 74.7063C463.321 77.366 467.11 81.1721 469.866 86.1247C472.622 91.0773 474 96.9928 474 103.871C474 110.658 472.622 116.528 469.866 121.48C467.11 126.433 463.321 130.239 458.498 132.899C453.676 135.559 448.202 136.888 442.078 136.888C435.954 136.888 430.48 135.559 425.658 132.899C420.835 130.239 417.046 126.433 414.29 121.48C411.534 116.528 410.156 110.658 410.156 103.871ZM433.236 103.871C433.236 106.439 433.657 108.595 434.499 110.337C435.341 112.08 436.413 113.41 437.714 114.327C439.092 115.152 440.547 115.565 442.078 115.565C443.609 115.565 445.025 115.152 446.327 114.327C447.704 113.41 448.814 112.08 449.657 110.337C450.499 108.595 450.92 106.439 450.92 103.871C450.92 101.303 450.499 99.1481 449.657 97.4055C448.814 95.663 447.704 94.3331 446.327 93.416C445.025 92.4988 443.609 92.0403 442.078 92.0403C440.547 92.0403 439.092 92.4988 437.714 93.416C436.413 94.3331 435.341 95.663 434.499 97.4055C433.657 99.1481 433.236 101.303 433.236 103.871Z" fill="white"/>
</svg>
